<svg t="1622162620416" class="icon" viewBox="0 0 1281 1024" version="1.1" xmlns="http://www.w3.org/2000/svg" p-id="1187" xmlns:xlink="http://www.w3.org/1999/xlink" width="250.1953125" height="200"><path d="M1261.504718 425.928439l-240.824333-243.824265a57.445507 57.445507 0 0 0-40.850139-16.978339H767.090383V98.425218A99.189243 99.189243 0 0 0 667.326685 0.001915H99.765071A100.84878 100.84878 0 0 0 29.107097 28.979982a97.721191 97.721191 0 0 0-29.105724 69.700549V785.090517a55.658314 55.658314 0 0 0 16.659197 39.765057 57.445507 57.445507 0 0 0 40.403341 16.595369h28.339783a182.549057 182.549057 0 0 0 365.034286 0h377.161671a182.549057 182.549057 0 0 0 365.098114 0h85.019351V465.438182a55.977456 55.977456 0 0 0-16.212398-39.509743zM335.291652 896.470973a67.211244 67.211244 0 0 1-34.211991 58.339105 69.253751 69.253751 0 0 1-68.423982 0 67.211244 67.211244 0 0 1-34.211992-58.339105 67.147415 67.147415 0 0 1 19.978271-47.807428 69.445236 69.445236 0 0 1 48.445712-19.850614 68.041012 68.041012 0 0 1 68.423982 67.658042z m744.046979 0a68.487811 68.487811 0 0 1-136.911793 0 68.104841 68.104841 0 0 1 68.423982-67.658042 69.445236 69.445236 0 0 1 48.50954 19.850614 67.083587 67.083587 0 0 1 19.978271 47.807428z m84.317239-308.67386H821.344474V277.782858h109.593262a57.445507 57.445507 0 0 1 40.850139 16.91451l191.804167 193.527532v99.572213z" p-id="1188"></path></svg>