<svg 
 xmlns="http://www.w3.org/2000/svg"
 xmlns:xlink="http://www.w3.org/1999/xlink"
 width="16" height="16">
<path fill-rule="evenodd"  fill="rgb(76, 145, 255)"
 d="M2.000,-0.000 L14.000,-0.000 C15.105,-0.000 16.000,0.895 16.000,2.000 L16.000,14.000 C16.000,15.105 15.105,16.000 14.000,16.000 L2.000,16.000 C0.895,16.000 -0.000,15.105 -0.000,14.000 L-0.000,2.000 C-0.000,0.895 0.895,-0.000 2.000,-0.000 Z"/>
<path fill-rule="evenodd"  fill="rgb(255, 255, 255)"
 d="M10.116,2.796 C10.116,2.796 10.166,2.373 9.793,2.099 C9.419,1.825 8.896,2.472 8.896,2.472 C8.896,2.472 7.789,3.565 6.753,4.588 C5.843,5.487 4.987,6.332 4.987,6.332 L7.925,7.751 L10.116,2.796 ZM5.883,13.204 C5.883,13.204 5.834,13.627 6.207,13.901 C6.581,14.175 7.104,13.528 7.104,13.528 C7.104,13.528 7.700,12.939 8.428,12.221 C9.562,11.101 11.013,9.668 11.013,9.668 L8.075,8.249 L5.883,13.204 ZM13.528,8.896 C13.528,8.896 12.947,8.308 12.235,7.587 C11.114,6.451 9.668,4.987 9.668,4.987 L8.249,7.925 L13.204,10.117 C13.204,10.117 13.627,10.166 13.901,9.793 C14.175,9.419 13.528,8.896 13.528,8.896 L13.528,8.896 ZM7.751,8.075 L2.796,5.883 C2.796,5.883 2.373,5.834 2.099,6.207 C1.825,6.581 2.472,7.104 2.472,7.104 C2.472,7.104 3.374,8.017 4.306,8.961 C5.302,9.970 6.332,11.013 6.332,11.013 L7.751,8.075 Z"/>
</svg>
