<svg t="1622162602630" class="icon" viewBox="0 0 1024 1024" version="1.1" xmlns="http://www.w3.org/2000/svg" p-id="903" xmlns:xlink="http://www.w3.org/1999/xlink" width="200" height="200"><path d="M618.485911 90.875635A98.419162 98.419162 0 0 0 514.239996 0.190164a100.114218 100.114218 0 0 0-104.245916 90.685471 27.332771 27.332771 0 0 0 2.542583 13.984208 364.807734 364.807734 0 0 0-261.88608 339.646753v125.751933s0 181.476883-50.851666 181.476883a49.739286 49.739286 0 0 0-53.394249 46.508087 48.997699 48.997699 0 0 0 50.851666 46.561056h828.829186a46.719968 46.719968 0 1 0 0-93.069143c-50.851666 0-50.851666-181.476883-50.851666-181.476883V444.665508a345.632418 345.632418 0 0 0-259.555379-337.316052 41.899654 41.899654 0 0 0 2.542584-16.314909z m50.851666 795.616693a147.363891 147.363891 0 0 1-155.097581 137.246528 145.880717 145.880717 0 0 1-155.097582-137.246528h310.195163z m0 0" p-id="904"></path></svg>