<svg 
 xmlns="http://www.w3.org/2000/svg"
 xmlns:xlink="http://www.w3.org/1999/xlink"
 width="16" height="16">
<path fill-rule="evenodd"  fill="rgb(76, 145, 255)"
 d="M2.000,-0.000 L14.000,-0.000 C15.105,-0.000 16.000,0.895 16.000,2.000 L16.000,14.000 C16.000,15.105 15.105,16.000 14.000,16.000 L2.000,16.000 C0.895,16.000 -0.000,15.105 -0.000,14.000 L-0.000,2.000 C-0.000,0.895 0.895,-0.000 2.000,-0.000 Z"/>
<path fill-rule="evenodd"  fill="rgb(255, 255, 255)"
 d="M10.730,7.548 L8.448,7.548 L8.448,5.283 C8.448,4.024 9.470,3.000 10.729,3.000 C11.989,3.000 13.010,4.017 13.010,5.276 C13.010,6.535 11.989,7.548 10.730,7.548 ZM3.000,5.279 C3.000,4.020 4.020,3.004 5.279,3.004 C6.538,3.004 7.557,4.024 7.557,5.283 L7.557,7.554 L5.281,7.554 C4.022,7.554 3.000,6.538 3.000,5.279 Z"/>
<path fill-rule="evenodd"  fill="rgb(255, 255, 255)"
 d="M10.729,13.010 C9.470,13.010 8.448,11.986 8.448,10.727 L8.448,8.462 L10.730,8.462 C11.989,8.462 13.010,9.475 13.010,10.734 C13.010,11.993 11.989,13.010 10.729,13.010 ZM5.279,13.006 C4.020,13.006 3.000,11.990 3.000,10.731 C3.000,9.472 4.022,8.456 5.281,8.456 L7.557,8.456 L7.557,10.727 C7.557,11.986 6.538,13.006 5.279,13.006 Z"/>
</svg>
