<svg 
 xmlns="http://www.w3.org/2000/svg"
 xmlns:xlink="http://www.w3.org/1999/xlink"
 width="16" height="16">
<path fill-rule="evenodd"  fill="rgb(76, 145, 255)"
 d="M2.000,-0.000 L14.000,-0.000 C15.105,-0.000 16.000,0.895 16.000,2.000 L16.000,14.000 C16.000,15.105 15.105,16.000 14.000,16.000 L2.000,16.000 C0.895,16.000 -0.000,15.105 -0.000,14.000 L-0.000,2.000 C-0.000,0.895 0.895,-0.000 2.000,-0.000 Z"/>
<path fill-rule="evenodd"  fill="rgb(255, 255, 255)"
 d="M13.687,7.611 L12.313,6.236 L12.313,4.292 C12.313,3.975 12.056,3.719 11.740,3.719 L9.796,3.719 L8.421,2.344 C8.197,2.120 7.834,2.120 7.611,2.344 L6.236,3.719 L4.292,3.719 C3.975,3.719 3.719,3.975 3.719,4.292 L3.719,6.236 L2.344,7.611 C2.121,7.834 2.121,8.197 2.344,8.421 L3.719,9.796 L3.719,11.740 C3.719,12.056 3.975,12.313 4.292,12.313 L6.236,12.313 L7.611,13.687 C7.834,13.911 8.197,13.911 8.421,13.687 L9.796,12.313 L11.740,12.313 C12.056,12.313 12.313,12.056 12.313,11.740 L12.313,9.796 L13.687,8.421 C13.911,8.197 13.911,7.834 13.687,7.611 L13.687,7.611 ZM8.016,11.740 L8.016,4.292 C10.072,4.292 11.740,5.959 11.740,8.016 C11.740,10.073 10.072,11.740 8.016,11.740 L8.016,11.740 Z"/>
</svg>
