<svg t="1622162614001" class="icon" viewBox="0 0 1024 1024" version="1.1" xmlns="http://www.w3.org/2000/svg" p-id="1045" xmlns:xlink="http://www.w3.org/1999/xlink" width="200" height="200"><path d="M55.387907 26.962279h332.327445a55.387907 55.387907 0 0 1 55.387907 55.387908v332.327444a55.387907 55.387907 0 0 1-55.387907 55.387907H55.387907a55.387907 55.387907 0 0 1-55.387907-55.387907v-332.327444a55.387907 55.387907 0 0 1 55.387907-55.387908z m0 553.879074h332.327445a55.387907 55.387907 0 0 1 55.387907 55.387908v332.327444a55.387907 55.387907 0 0 1-55.387907 55.387907H55.387907a55.387907 55.387907 0 0 1-55.387907-55.387907v-332.327444a55.387907 55.387907 0 0 1 55.387907-55.387908z m553.879074 0h332.327444a55.387907 55.387907 0 0 1 55.387908 55.387908v332.327444a55.387907 55.387907 0 0 1-55.387908 55.387907h-332.327444a55.387907 55.387907 0 0 1-55.387907-55.387907v-332.327444a55.387907 55.387907 0 0 1 55.387907-55.387908zM827.273784 16.217025l180.398415 180.453803a55.387907 55.387907 0 0 1 0 78.318501l-180.398415 180.398414a55.387907 55.387907 0 0 1-78.318501 0l-180.398414-180.398414a55.387907 55.387907 0 0 1 0-78.318501L748.955283 16.217025a55.387907 55.387907 0 0 1 78.318501 0z" p-id="1046"></path></svg>