<svg t="1622162624877" class="icon" viewBox="0 0 1024 1024" version="1.1" xmlns="http://www.w3.org/2000/svg" p-id="1329" xmlns:xlink="http://www.w3.org/1999/xlink" width="128" height="128"><path d="M992.420763 959.792156H962.593533V352.554784a96.1327 96.1327 0 0 0-96.030377-96.183862h-223.934449V96.081539a96.1327 96.1327 0 0 0-96.030377-96.183862H162.527982a96.081539 96.081539 0 0 0-96.030377 96.183862v863.710617H32.168152a32.078341 32.078341 0 0 0 0 64.156682h960.252611a32.078341 32.078341 0 0 0 0-64.156682zM322.561557 833.422933h-127.904072v-128.262204h127.904072v128.262204z m0-256.473245h-127.904072V448.687484h127.904072v128.262204z m0-256.473245h-127.904072V192.214239h127.904072V320.476443z m192.060755 512.94649h-127.904072v-128.262204h127.904072v128.262204z m0-256.473245h-127.904072V448.687484h127.904072v128.262204z m0-256.473245h-127.904072V192.214239h127.904072V320.476443zM834.689461 833.422933h-127.904072v-128.262204h127.904072v128.262204z m0-256.473245h-127.904072V448.687484h127.904072v128.262204z m0 0" p-id="1330"></path></svg>