<svg t="1622162637106" class="icon" viewBox="0 0 1075 1024" version="1.1" xmlns="http://www.w3.org/2000/svg" p-id="1755" xmlns:xlink="http://www.w3.org/1999/xlink" width="209.9609375" height="200"><path d="M679.48197 946.903825l-5.477616-2.303671-7.678902-4.504956a96.754164 96.754164 0 0 1-58.666811-88.512142v-38.906437a96.242237 96.242237 0 0 1 29.179827-69.570851s12.23505-13.002941 16.893585-16.637621a102.385359 102.385359 0 0 1 25.954688-8.958719 95.935081 95.935081 0 0 1 34.811022-102.078203 333.264343 333.264343 0 0 0-177.996946-51.192679h-199.65145A338.485997 338.485997 0 0 0 0.001536 903.287662v20.221108c0 97.880403 148.45877 97.880403 336.694253 97.880403h199.65145c53.854699 0 105.66169 0 151.683909-2.559634a97.266091 97.266091 0 0 1-8.702756-71.669751z m-252.789451-408.875931a269.068723 269.068723 0 1 0-261.082665-268.966338 268.096062 268.096062 0 0 0 261.082665 268.966338z m620.506468 242.602108a51.499836 51.499836 0 0 1-48.223504-51.19268 48.018733 48.018733 0 0 1 5.682387-23.036705 32.149003 32.149003 0 0 0-12.695784-41.568456l-17.098355-10.238536-16.535236-9.419453a31.790654 31.790654 0 0 0-41.875612 9.573031 50.680753 50.680753 0 0 1-84.928655 0 31.790654 31.790654 0 0 0-41.926804-9.573031l-17.661475 9.573031-16.535235 9.573031a32.09781 32.09781 0 0 0-12.695785 41.568456 46.841302 46.841302 0 0 1 5.682388 22.93432 51.192679 51.192679 0 0 1-48.223504 51.19268v0.614312a31.432305 31.432305 0 0 0-29.179827 31.893039v39.008822a32.353773 32.353773 0 0 0 29.179827 31.893039l0.665505 0.716698a50.117633 50.117633 0 0 1 40.954143 25.596339 50.783138 50.783138 0 0 1 0.716698 48.581853 32.046617 32.046617 0 0 0 12.695784 41.466071l33.582398 19.760374a31.637076 31.637076 0 0 0 41.926804-9.573031 50.015248 50.015248 0 0 1 42.438732-22.985513 51.653414 51.653414 0 0 1 42.438731 22.985513 31.227534 31.227534 0 0 0 41.875612 9.624224l33.63359-19.811567a31.944232 31.944232 0 0 0 12.695785-40.954144c-6.859819-14.89707 0-0.665505-0.716698-0.665505s-0.614312-1.279817-1.228624-1.894129l-0.614312-0.614312a51.192679 51.192679 0 0 1 3.63468-46.841302 50.62956 50.62956 0 0 1 40.135061-24.060559l0.511926-0.614312a31.585883 31.585883 0 0 0 29.179828-31.995425v-40.186253a29.742947 29.742947 0 0 0-27.848818-31.32992zM947.578033 859.159572a83.034526 83.034526 0 0 1-13.975602 24.316523 79.041497 79.041497 0 0 1-139.448859-51.19268 91.737282 91.737282 0 0 1 4.402571-26.876156 71.157824 71.157824 0 0 1 13.975601-24.26533 76.072322 76.072322 0 0 1 46.892495-26.773772 78.068836 78.068836 0 0 1 27.90001 0 77.966451 77.966451 0 0 1 60.816903 51.19268 73.871036 73.871036 0 0 1 4.504956 26.876157 74.792505 74.792505 0 0 1-5.119268 26.773771z m0 0" p-id="1756"></path></svg>