<svg t="1622162628907" class="icon" viewBox="0 0 1024 1024" version="1.1" xmlns="http://www.w3.org/2000/svg" p-id="1471" xmlns:xlink="http://www.w3.org/1999/xlink" width="200" height="200"><path d="M437.626742 11.799308L12.259669 281.907953a13.303114 13.303114 0 0 0 7.205854 24.555332h914.201085a13.303114 13.303114 0 0 0 7.205853-24.555332L516.115115 11.688449a71.725957 71.725957 0 0 0-78.488373 0z m573.918513 731.671274a35.142393 35.142393 0 0 0-28.767984-27.714821 67.347015 67.347015 0 0 1-50.939841-88.077701 34.0338 34.0338 0 0 0-9.589328-38.357312 234.356526 234.356526 0 0 0-70.063068-40.740787 34.0338 34.0338 0 0 0-37.747586 8.369876 66.51557 66.51557 0 0 1-52.713589 25.165057 68.511037 68.511037 0 0 1-52.71359-25.165057 34.0338 34.0338 0 0 0-37.747586-8.369876 245.054447 245.054447 0 0 0-70.672794 40.740787 34.310948 34.310948 0 0 0-9.589328 38.357312 67.347015 67.347015 0 0 1-50.939841 88.077701 35.142393 35.142393 0 0 0-28.767984 27.714821 239.456053 239.456053 0 0 0 0 82.701026 35.142393 35.142393 0 0 0 28.767984 27.714821 67.347015 67.347015 0 0 1 50.939841 88.077701 34.08923 34.08923 0 0 0 9.589328 38.357312 243.890425 243.890425 0 0 0 70.672794 40.685357 33.812082 33.812082 0 0 0 37.747586-8.369876 66.51557 66.51557 0 0 1 52.71359-25.165057 68.677326 68.677326 0 0 1 52.713589 25.165057 33.867511 33.867511 0 0 0 37.747586 8.369876 243.890425 243.890425 0 0 0 70.672794-40.685357 34.310948 34.310948 0 0 0 9.589328-38.357312 67.347015 67.347015 0 0 1 50.939841-88.077701 35.142393 35.142393 0 0 0 28.767984-27.714821 231.363326 231.363326 0 0 0 3.602927-41.350513 323.59825 323.59825 0 0 0-4.212653-41.350513z m-249.433389 142.620469a101.269956 101.269956 0 1 1 101.269956-101.269956 101.547104 101.547104 0 0 1-101.048237 101.269956z m0 0l-320.49419-101.269956A319.829034 319.829034 0 0 1 761.779288 464.825772a314.895796 314.895796 0 0 1 188.128205 62.302917v-147.997144H6.882994v530.239955a71.504238 71.504238 0 0 0 67.679593 75.495173h439.72335a314.840366 314.840366 0 0 1-72.501972-200.101008z m0 0" p-id="1472"></path></svg>