<svg 
 xmlns="http://www.w3.org/2000/svg"
 xmlns:xlink="http://www.w3.org/1999/xlink"
 width="16" height="16">
<path fill-rule="evenodd"  fill="rgb(76, 145, 255)"
 d="M2.000,-0.000 L14.000,-0.000 C15.104,-0.000 16.000,0.895 16.000,2.000 L16.000,14.000 C16.000,15.105 15.104,16.000 14.000,16.000 L2.000,16.000 C0.895,16.000 -0.000,15.105 -0.000,14.000 L-0.000,2.000 C-0.000,0.895 0.895,-0.000 2.000,-0.000 Z"/>
<path fill-rule="evenodd"  fill="rgb(255, 255, 255)"
 d="M9.147,3.975 C9.147,3.450 8.655,3.000 8.027,3.000 C7.426,3.000 6.907,3.450 6.907,3.975 C6.907,4.025 6.907,4.075 6.934,4.125 C5.377,4.600 4.120,6.050 4.120,7.775 L4.120,9.125 C4.120,9.125 4.120,11.075 3.574,11.075 C3.246,11.075 3.000,11.300 3.000,11.575 C3.000,11.850 3.246,12.075 3.546,12.075 L12.453,12.075 C12.754,12.075 13.000,11.850 13.000,11.575 C13.000,11.300 12.754,11.075 12.453,11.075 C11.907,11.075 11.907,9.125 11.907,9.125 L11.907,7.775 C11.934,6.050 10.759,4.600 9.120,4.150 C9.147,4.075 9.147,4.025 9.147,3.975 L9.147,3.975 ZM9.694,12.525 C9.694,13.325 8.956,14.000 8.027,14.000 C7.098,14.000 6.360,13.350 6.360,12.525 L9.694,12.525 Z"/>
</svg>
