<svg t="1622162890009" class="icon" viewBox="0 0 1137 1024" version="1.1" xmlns="http://www.w3.org/2000/svg" p-id="1943" width="142.125" height="128" xmlns:xlink="http://www.w3.org/1999/xlink"><path d="M568.888889 0S216.974222 303.843556 20.309333 468.366222A59.107556 59.107556 0 0 0 0 512a56.888889 56.888889 0 0 0 56.888889 56.888889h113.777778v398.222222a56.888889 56.888889 0 0 0 56.888889 56.888889h170.666666a56.888889 56.888889 0 0 0 56.888889-56.888889v-227.555555h227.555556v227.555555a56.888889 56.888889 0 0 0 56.888889 56.888889h170.666666a56.888889 56.888889 0 0 0 56.888889-56.888889v-398.222222h113.777778a56.888889 56.888889 0 0 0 56.888889-56.888889 55.580444 55.580444 0 0 0-21.788445-43.690667C920.689778 303.729778 568.888889 0 568.888889 0z m0 0" p-id="1944"></path></svg>